/* XPM */
static char *admzd_vzao6[] = {
/* columns rows colors chars-per-pixel */
"50 50 196 2 ",
"   c None",
".  c #261402",
"X  c #2A1603",
"o  c #2E1804",
"O  c #281708",
"+  c #27180A",
"@  c #2D1C0C",
"#  c #331B03",
"$  c #3A1F02",
"%  c #331E0A",
"&  c #221A11",
"*  c #2C1F12",
"=  c #311F10",
"-  c #3D2002",
";  c #37210C",
":  c #3E250B",
">  c #2B2015",
",  c #2B231A",
"<  c #332313",
"1  c #382613",
"2  c #3C2813",
"3  c #34261A",
"4  c #35291D",
"5  c #3B2C1C",
"6  c #2E2621",
"7  c #2E2921",
"8  c #332C24",
"9  c #3A2E22",
"0  c #332E2A",
"q  c #3D3226",
"w  c #36312C",
"e  c #3B342D",
"r  c #373430",
"t  c #3A3631",
"y  c #3D3934",
"u  c #3E3C38",
"i  c #432302",
"p  c #492602",
"a  c #4E2902",
"s  c #42270A",
"d  c #462A0C",
"f  c #4B2E0E",
"g  c #542C02",
"h  c #582F03",
"j  c #4E300F",
"k  c #5B3104",
"l  c #52320E",
"z  c #5B340A",
"x  c #432B12",
"c  c #4C2F10",
"v  c #452F18",
"b  c #4D3113",
"n  c #4B351F",
"m  c #523311",
"M  c #5A3711",
"N  c #563816",
"B  c #5D3914",
"V  c #5A3C1C",
"C  c #613507",
"Z  c #633709",
"A  c #66390A",
"S  c #693B0B",
"D  c #633C14",
"F  c #693F13",
"G  c #643F18",
"H  c #413325",
"J  c #4C3925",
"K  c #41372C",
"L  c #44392D",
"P  c #483A2C",
"I  c #573D23",
"U  c #5D3F21",
"Y  c #433C34",
"T  c #493E32",
"R  c #423E39",
"E  c #6C4317",
"W  c #62411F",
"Q  c #6E4418",
"!  c #734516",
"~  c #764817",
"^  c #724618",
"/  c #774918",
"(  c #794A19",
")  c #5F4121",
"_  c #474037",
"`  c #4C4136",
"'  c #43403C",
"]  c #46423D",
"[  c #46433F",
"{  c #47433F",
"}  c #46423C",
"|  c #48433C",
" . c #48443E",
".. c #4C443C",
"X. c #524333",
"o. c #51473D",
"O. c #54493E",
"+. c #584A3C",
"@. c #624323",
"#. c #6A4725",
"$. c #6D4927",
"%. c #65482C",
"&. c #6B4C2F",
"*. c #654B35",
"=. c #6A4D30",
"-. c #664E39",
";. c #474440",
":. c #474440",
">. c #484541",
",. c #494742",
"<. c #4A4742",
"1. c #4D4740",
"2. c #494641",
"3. c #4D4842",
"4. c #4C4944",
"5. c #4D4A45",
"6. c #4C4A45",
"7. c #4E4B46",
"8. c #4E4B45",
"9. c #4F4C47",
"0. c #4D4A45",
"q. c #514D46",
"w. c #544C44",
"e. c #584F45",
"r. c #504D48",
"t. c #524E48",
"y. c #554F48",
"u. c #524F49",
"i. c #575047",
"p. c #5B5147",
"a. c #53504B",
"s. c #55514B",
"d. c #53514C",
"f. c #55524D",
"g. c #57534D",
"h. c #57544F",
"j. c #57544D",
"k. c #55524C",
"l. c #5C544C",
"z. c #5F584E",
"x. c #595651",
"c. c #5A5752",
"v. c #5A5651",
"b. c #5B5852",
"n. c #5A5851",
"m. c #5C5953",
"M. c #5C5A53",
"N. c #5D5A54",
"B. c #5D5A55",
"V. c #5E5B55",
"C. c #5F5B55",
"Z. c #5E5B56",
"A. c #5F5C56",
"S. c #5F5D57",
"D. c #5E5C55",
"F. c #5D5A54",
"G. c #5D5458",
"H. c #614E43",
"J. c #645241",
"K. c #62564C",
"L. c #61584E",
"P. c #635551",
"I. c #605D57",
"U. c #605C55",
"Y. c #635C54",
"T. c #685E55",
"R. c #615E58",
"E. c #625F59",
"W. c #605D58",
"Q. c #615E58",
"!. c #6C6053",
"~. c #63605A",
"^. c #66625D",
"/. c #67635E",
"(. c #65615C",
"). c #67645E",
"_. c #65625A",
"`. c #68645F",
"'. c #6B645C",
"]. c #6D685F",
"[. c #71665C",
"{. c #75695E",
"}. c #7E6C5A",
"|. c #5D6075",
" X c #6A6660",
".X c #6D6961",
"XX c #756A60",
"oX c #796E63",
"OX c #706B6C",
"+X c #7B7166",
"@X c #656B7E",
"#X c #82766B",
"$X c #83796E",
"%X c #857B71",
"&X c #676D81",
"*X c #6A7185",
/* pixels */
"                                        r.r.r.d.} } } Y U.^.^. X                                    ",
"                                    Y 8.4.8.8.7.} } 8.} Y 8.B.^.D.c.                                ",
"                                ^.^.g.} 4.8.8.d.<.} 8.8.<.Y e } Y e s.`.R.                          ",
"                            R 3.I.N.I.Y :.7.8.7.u :.8.7.7.<.8 w 8 e B.R.I.D.I.                      ",
"                          } Y t s.R.c.w 0 Y R u 0 e t R :.r w y w <.D.n.B.R.B.                      ",
"                      e q.R.U.r.y <.,.3 @ % % = % o % % < < < 0 w h.I.B.n.c.R.q.                    ",
"                    3.R N.N.c.B.8.w r = # X . . X # # X X . . @ 1 T h.h.x.R.B.t u u                 ",
"                    e e B.B.B.B.r.< = X . # i g g g g a g g $ X . % 9 Y 8.u.:.0 w e                 ",
"                  ' t 0 ,.R.E.Z.T o . # p a a h g g g g h k h g $ . o % 4 Y u R } e                 ",
"                R u u r r R ,.R = X i g g g a h h g g a h h h h g i . . # < Y 7.q. .w               ",
"                Y t w 7 Y t < @ o p h g g a a h h g g g h k h h g g i X . # H w.8.;.t u             ",
"              /.R.N.9.8 8 3 o . a h h g g g a h h g g g h k h h g g g a . X 1 R r.;.r y             ",
"              R.D.D.x.<.% o . $ k h g g g a a h h h g a h k h h g g g k i . # 3 R u 8 w             ",
"              I.D.D.a.' 3 X # a k h h h g g g h h h g a h C h g g g g k g # X # < w 3.B.N.          ",
"              9.B.I.r.u > X p a z h g h g a g h h g g a g C h h g g g k h g X # % q.B.^.B.          ",
"            w.e w Y q 4 @ $ g p h h h g g g a h h h g g g C h g g g g h g h $ X ; i.R.R.8.          ",
"          `.R.a.w R 3 # o a g a h h h h g a g h h h h a g C h g g g g h h h a . # e.U.>.u y.        ",
"          I.N.8.K  .6 O # g a g k h h g g g a h h h a a a C h g g a a h h h g # o o.c.R } B.        ",
"          R.h.y Y u 3 . - h g p z k g h g a g h h h a h a k h g g g a h h h g - X P c.R ,.B.<.      ",
"          3.Y 8 r 0 @ . a h g p h h g g g g a h h h a a a C h g g g a h h h g p X < R u t 3.        ",
"          8.R 8 R 8 . # k k h h Z Z h k h h h k k k h h h C C h h h g C h h h g o # e >.Y 8         ",
"    oX  r.8.u 3.E.K * b C z M Z Z Z Z Z Z S A A A A A A A S S S S S S S S A A C # o e R Y w.        ",
"T.#XXX  8.;.e b.W.Y * 9 d d x a a a a a a a a a g g g p p g g g g a g a g g a g $ X < R B.B.U.oX    ",
"Y.l.    w.R w G.U.Y * 9 < % 3 4 d g h g h g h g g g g g g g g g g g a g a g g g i X < u.B.h.Y.{.XXL.",
"w.` '.$XY w 8 s.W.R = 0 s s < s a h k z C C Z Z k C Z z C A Z C k h k k k h g h i o 9 } q. .q.[.w.w.",
"  P.Y.$X` , , 8 R r * v p d G ! ~ / / ( / ( ( ( ( ( ( ( F ( ( F ! ! Q $.Q Z a g # o ` s.t e [.%Xw.w.",
"    l.'.l.4 * 7 R r + p g g #.OX-.F Q Q G F Q Q F F / Q Q Q F Q Q E =.@XK.F s # X o P h.e T [.p.w.  ",
"      !.T.t , t v.{ O g h z %.|.H.F Q ^ F F F G F F F Q F Q / F E E #.G.-.Q z p # o ` P...p.T.      ",
"    w.l.P.w...8 d.1.O g h z G #.$.^ F ^ F Q F Q F Q F F Q Q Q F E Q E Q Q Q D W n X.Y.l.w.e.w.      ",
"    l.L...O.Y._ K L X a h C F F F F ^ F F G Q Q Q Q Q G Q Q Q Q E E E E E $.}.oX{.L.L.L.e.p.w.      ",
"      +XY...w.L.6 = X a h h D B B B G V B B M M G V B B B B G V B B B B B U K.Y.w.e.w.Y.oX[.L.      ",
"      !.+Xl.i.l.1.8 @ a h h M B B B B B M B V B B D B B D B D D B B B B M W p.l.O.e.Y.!.XX+X'.      ",
"        T.T.i.T.oXoXO.g g g B B B B B D B B B B B D B B B B D B B B B B M @.e.w.w.w.l.Y.'.P.N.      ",
"        e.i.e.1.e.T.{.*.=.B M B M B B B B B B B B B B B B B B B B B B M M V X.1.e.` T ..Y ..N.      ",
"        I.i.w...w.w.K.[.XXJ.B %.@.D B D B B B B B D D B D D D D D D G %.@.D I J 5 % 5 R e g.h.      ",
"          B.` O.w.w.Y.p.l.T.-.&XP.E Q E E E Q Q Q Q Q Q Q E Q Q Q E =.*XJ.E z g # # K w.e t e       ",
"          } e ....w.#Xe.+.V @.P.*.E E E E E E E E Q Q E Q E Q E Q Q #.G.*.E z g # o 5 t 7 e }       ",
"          | 8 e Y T T.'.+.M G Q $.Q E E Q ! Q ! Q ! Q Q Q Q E ! Q Q Q Q $.E S A - X 9 3.Y } 4.      ",
"          ^.s.Y l.w.Y e.O.b v B E D F F F F E F E F F E E F F F F F F E E F z h - o P ^.h.e t       ",
"          ~.g.N.W.v.e L ..H < 4 x g g g g g g g g g g g g g g g g g g g g g g g $ o O.^.n.u 8       ",
"          ~.q.s.c.h.0 9 2 d < s p g g h h h g k h g g g g g h g h g g k h h h k - o e./.D.4.y       ",
"          3.e e h.r.8 9 d a 2 a g g g a a g g g g g g a a g g a a g a a a a a a # o q 8.c.} w       ",
"          N.I.s.R t 6 % g g p p g g a i - $ i g g g p i - p g g a i i a a a p i o o < t e Y s.      ",
"          U.D.B.c.7.0 % g g g g C k g g g p a g g g g g a a k h g g a g h g g g # o H g.c.N.R.h.    ",
"          B.N.n.n.c.y % g g g g h k g g g g g h h k g g a a k g g g p g h g g g # o O.~.~./.B.<.    ",
"          R.I.D.D.d.t 5 N m m b N M l N f f f l l l j f j b l j f f f j l j j j 1 5 w.~.B.h.;.      ",
"          a.x.n.a.{ h..X.X'.).`.'..X.X'._.~.~.~.!._._._.~.`.~.T.~.~.~.~.~.'.).)./.`.h.y y t 7       ",
"                  Y s.l.l.L.L.K.L.L.l.g.s.s.d.r.d.s.g.N.B.I.I.B.V.D.n.l.n.N.l.g.a.a.<.&             ",
"                                          0 e Y T T     Y Y Y e e y T X.                            ",
"                                                                                                    "
};
