/* XPM */
static char *_6bot_ezv7m[] = {
/* columns rows colors chars-per-pixel */
"50 50 216 2 ",
"   c black",
".  c #282827",
"X  c #35352A",
"o  c #232B3A",
"O  c #363B37",
"+  c #2F3436",
"@  c #411B12",
"#  c #53271E",
"$  c #5B362C",
"%  c #502C22",
"&  c #6D2E23",
"*  c #653329",
"=  c #7B3224",
"-  c #763528",
";  c #693C35",
":  c #763F37",
">  c #39403F",
",  c #4C462C",
"<  c #4D4C38",
"1  c #565237",
"2  c #574D2B",
"3  c #684537",
"4  c #764537",
"5  c #665B32",
"6  c #283144",
"7  c #373E42",
"8  c #212D41",
"9  c #3F495D",
"0  c #3A4042",
"q  c #464F57",
"w  c #794C43",
"e  c #6E5355",
"r  c #765A59",
"t  c #6C524C",
"y  c #747956",
"u  c #6E6A49",
"i  c #475468",
"p  c #4C5A77",
"a  c #6B5C6B",
"s  c #566477",
"d  c #69717D",
"f  c #797468",
"g  c #8D3626",
"h  c #8B3A2A",
"j  c #833829",
"k  c #953B2A",
"l  c #9A3C2B",
"z  c #973827",
"x  c #833D31",
"c  c #A53D2B",
"v  c #8B4333",
"b  c #864639",
"n  c #944B3B",
"m  c #9B4736",
"M  c #8C402F",
"N  c #A9412D",
"B  c #B4422D",
"V  c #A44D3A",
"C  c #A94935",
"Z  c #B94A34",
"A  c #B5523D",
"S  c #BB553F",
"D  c #A3503E",
"F  c #C2462D",
"G  c #C24A33",
"H  c #CA4C33",
"J  c #C24730",
"K  c #C4553D",
"L  c #CA543B",
"P  c #DC5A3E",
"I  c #D45339",
"U  c #E25A3D",
"Y  c #854C45",
"T  c #85544E",
"R  c #965646",
"E  c #8F5B57",
"W  c #AB5C4A",
"Q  c #A85846",
"!  c #B65945",
"~  c #AE5F50",
"^  c #986556",
"/  c #8D795B",
"(  c #BE614D",
")  c #A76355",
"_  c #B86555",
"`  c #8A6E66",
"'  c #AA776D",
"]  c #A77A72",
"[  c #CC5D44",
"{  c #C05A45",
"}  c #DC5D42",
"|  c #D65D43",
" . c #E25E41",
".. c #E85E40",
"X. c #C8614B",
"o. c #DB654A",
"O. c #DD6449",
"+. c #C86B56",
"@. c #DB6E55",
"#. c #DC735B",
"$. c #D3735D",
"%. c #E46346",
"&. c #EB6445",
"*. c #E2654A",
"=. c #EB694C",
"-. c #E9684B",
";. c #EA6E52",
":. c #E46C52",
">. c #EB7155",
",. c #E4735A",
"<. c #ED755A",
"1. c #E87358",
"2. c #C57464",
"3. c #D67A65",
"4. c #E77C64",
"5. c #8B8B69",
"6. c #AE837A",
"7. c #9BA274",
"8. c #A6AB75",
"9. c #A8B17B",
"0. c #DA8370",
"q. c #E7836D",
"w. c #E68873",
"e. c #4C5E84",
"r. c #4D608A",
"t. c #566788",
"y. c #4D718A",
"u. c #5A789C",
"i. c #58728F",
"p. c #777888",
"a. c #617499",
"s. c #6A7A95",
"d. c #6A768C",
"f. c #5974AD",
"g. c #5D78B2",
"h. c #637CB2",
"j. c #6479A3",
"k. c #5B819A",
"l. c #68859B",
"z. c #788393",
"x. c #5B82A2",
"c. c #6989AA",
"v. c #7385A5",
"b. c #6B91AA",
"n. c #6C84B9",
"m. c #728BBC",
"M. c #758AB1",
"N. c #6C9DBB",
"B. c #7C94B8",
"V. c #7A98A9",
"C. c #748DC1",
"Z. c #7199C4",
"A. c #6CA6C9",
"S. c #69A3C6",
"D. c #72AACD",
"F. c #7FA8C2",
"G. c #7CB2D4",
"H. c #7BAFCF",
"J. c #9D8485",
"K. c #8E9498",
"L. c #B28B85",
"P. c #A8928F",
"I. c #9CA186",
"U. c #B2AF97",
"Y. c #869AB9",
"T. c #8E9BA8",
"R. c #A49EA4",
"E. c #95A5B7",
"W. c #94A8B3",
"Q. c #ABB2B7",
"!. c #B8B5B6",
"~. c #A7A4A5",
"^. c #D2B9B4",
"/. c #BFC88B",
"(. c #CAD39D",
"). c #C2CC96",
"_. c #C8CEA7",
"`. c #CBD3A6",
"'. c #D0D7AA",
"]. c #D7E0AD",
"[. c #839CCB",
"{. c #8399C1",
"}. c #89A3C7",
"|. c #8AB4CD",
" X c #9CB5C9",
".X c #8BA4D2",
"XX c #95ACD6",
"oX c #89BDDC",
"OX c #88B5D1",
"+X c #98B4D9",
"@X c #A6BBDE",
"#X c #A5BCE3",
"$X c #9AC3DC",
"%X c #BDC3C7",
"&X c #A5C2D3",
"*X c #B4C9D4",
"=X c #A7C0CD",
"-X c #99C8E5",
";X c #ADC4E9",
":X c #A9C5E5",
">X c #B1C8EB",
",X c #B5D7E9",
"<X c #AAD9F3",
"1X c #B5DFF5",
"2X c #AAD5ED",
"3X c #BDE4F8",
"4X c #C8C6C7",
"5X c #CFD7DC",
"6X c #CBDAE4",
"7X c #DAE3E8",
"8X c #C6E7F8",
"9X c #E6EAED",
"0X c #EDF2F5",
"qX c #F5F7F8",
"wX c #E5EEF4",
"eX c None",
/* pixels */
"eXeXeXeXeXeXeXeXeXeXeXeXeXeXeXeXeXeXeXeXeXeXeXeXeXeXeXeXeXeXeXeXeXeXeXeXeXeXeXeXeXeXeXeXeXeXeXeXeXeX",
"eXeXeXeXeXeXeXeXeXeXeXeXeXeXeXeXeXeXeXeXeXeXeXeXeXeXeXeXeXeXeXeXeX$ eXeXeXeXeXeXeXeXeXeXeXeXeXeXeXeX",
"eXeXeXeXeXeXeXeXeXeXeXeXeXeXeXeXeXeXeXeXeXeXeXeXeXeXeXeXeXeXeX; $ $ eXeXeXeXeXeXeXeXeXeXeXeXeXeXeXeX",
"eXeXeXeXeXeXeXeXeXeXeXeXeXeXeXeXeXeXeXeXeXeXeXeXeXeXeXeXeXeXeXeX# % eXeXeX; ; $ eXeXeXeXeXeXeXeXeXeX",
"eXeXeXeXeXeXeXeXeXeXeXeXeXeXeXeXeXeXeXeXeXeXeXeXeXeXeXeXeXeXeX) C # eXeXeX% * * eXeXeXeXeXeXeXeXeXeX",
"eXeXeXeXeXeXeXeXeXeXeXeXeXeXeXeXeXeXeXeXeXeXeXeXeXeXeXeXeXeX) w.| = eXeXw W = eXeXeXeXeXeXeXeXeXeXeX",
"eXeXeXeXeXeXeXeXeXeXeXeXeXeXeXeXeXeXeXeXeXeXeXeXeXeXeXeXeXv q.,.Z = eXb 0.,.c eXeXeXeXeXeXeXeXeXeXeX",
"eXeXeXeXeXeXeXeXeXeXeXeXeXeXeXeXeXeXeXeXeXeXeXeXeXeXeXeXeXX.q.P N eXeX3.q.I l eXeXeXeXeXeXeXeXeXeXeX",
"eXeXeXeXeXeXeXeXeXeXeXeXeXeXeXeXeXeXeXeXeXeXeXeXeXeXeXeXv 4.>.G = eX! w.-.J & eXeXeXeXeXeXeXeXeXeXeX",
"eXeXeXeXeXeXeXeXeXeXeXeXeXeXeXeXeXeXeXeXeXeXeXeXeXeXeXeX! q.P c eXx 4.1.I g eXeXeXeXeXeXeXeXeXeXeXeX",
"eXeXeXeXeXeXeXeXeXeXeXeXeXeXeXeXeXeXeXeXeXeXeXeXeXeXeXeX$.;.H = eX! q. .B eXeXeXeXeXeXeXeXeXeXeXeXeX",
"eXeXeXeXeXeXeXeXeXeXeXeXeXeXeXeXeXeXeXeXeXeXeXeXeXeXeXn ,. .N eXx ,.;.H = eXeXeXeXeXeXeXeXeXeXeXeXeX",
"eXeXeXeXeXeXeXeXeXeXeXeXeXeXeXeXeXeXeXeXeXeXeXeXeXeXeXS ;.I g eX! <.} c eXeXeXeXeXeXeXeXeXeXeXeXeXeX",
"eXeXeXeXeXeXeXeXeXeXeXeXeXeXeXeXeXeXeXeXeXeXeXeXeXeXeXX.&.Z eXeXo.=.G = eXeXeXeXeXeXeXeXeXeXeXeXeXeX",
"eXeXeXeXeXeXeXeXeXeXeXeXeXeXeXeXeXeXeXeXeXeXeXeXeXeXeXo.U m eXC =.P l eXeXeXeXeXeXeXeXeXeXeXeXeXeXeX",
"eXeXeXeXeXeXeXeXeXeXeXeXeXeXeXeXeXeXeXeXeXeXeXeXeXeX4 3 n - eXX.-.Z eXeXeXeXeXeXeXeXeXeXeXeXeXeXeXeX",
"eXeXeXeXeXeXeXeXeXeXeXeXeXeXeXeXeXeXeXeXeXeXeXeXeXeXf . 1 eXu 3 v m eXeXeXeXeXeXeXeXeXeXeXeXeXeXeXeX",
"eXeXeXeXeXeXeXeXeXeXeXeXeXeXeXeXeXeXeXeXeXeXeXeXeXeXU.7.y eXI.X 1 3 eXeXeXeXeXeXeXeXeXeXeXeXeXeXeXeX",
"eXeXeXeXeXeXeXeXeXeXeXeXeXeXeXeXeXeXeXeXeXeXeXeXeXeX_./.eXeX_.7.u eXeXeXeXeXeXeXeXeXeXeXeXeXeXeXeXeX",
"eXeXeXeXeXeXeXeXeXeXeXeXeXeXeXeXeXeXeXeXeXeXeXeXeXeX'.8.eXeX].8.eXeXeXeXeXeXeXeXeXeXeXeXeXeXeXeXeXeX",
"eXeXeXeXeXeXeXeXeXeXeXeXeXeXeXeXeXeXeXeXeXeXeXeXeXeX'.5.eXU.(.y eXeXeXeXeXeXeXeXeXeXeXeXeXeXeXeXeXeX",
"eXeXeXeXeXeXeXeXeXeXeXeXeXeXeXeXeXeXeXeXeXeXeXb eXI.).eXeX_.9.eXeXeXeXeXeXeXeXeXeXeXeXeXeXeXeXeXeXeX",
"eXeXeXeXeXeXeXeXeXeXeXeXeXeXeXeXeXeXeXeXeXeXeXeX= ^ 5.eX/ `.5.eXeXeXeXeXeXeXeXeXeXeXeXeXeXeXeXeXeXeX",
"eXeXeXeXeXeXeXeXeXeXeXeXeXeXeXeXeXeXeXeXeXeXeXeX) D { X./ 9.5 eXeXeXeXeXeXeXeXeXeXeXeXeXeXeXeXeXeXeX",
"eXeXeXeXeXeXeXeXeXeXeXeXeXeXeXeXeXeXeXeXeXeXE +.>.-.O.@.~ R ^ ) b eXeXeXeXeXeXeXeXeXeXeXeXeXeXeXeXeX",
"eXeXeXeXeXeXeXeXeXeXeXeXeXeXeXeXeXeXeXeXeXQ :.G S X.[ X.) J.W.Y.b eXeXeXeXeXeXeXeXeXeXeXeXeXeXeXeXeX",
"eXeXeXeXeXeXeXeXeXeXA n b eXeXeXeXeXeXeX~ ;. .F ] _.!.!.5X7X6X*XT eXeXeXeXeXeXeXeXeXeXeXeXeXeXeXeXeX",
"eXeXeXeXeXeXeXeXeXeXj x v m w W.E.eXeX! =...+.L.J.7X0X0X0X0X%XQ.Y eXeXeXeXeXeXeXeXeXeXeXeXeXeXeXeXeX",
"eXeXeXeXeXeXeXeXeXb eXh eXeXd 2X3XV.R *.U L ^.qX%X!.Q.Q.~.R.r ; j eXeXeXeXeXeXeXeXeXeXeXeXeXeXeXeXeX",
"eXeXeXeXeXeXeXb $.w.3.A m eXi.H.H.V.W.2.P [ U.9XqXqX4X4XR.f e h N k eXeXeXeXeXeXeXeXeXeXeXeXeXeXeXeX",
"eXeXeXD Q m eXx L X.@.<.O.G 4 eXl.$X}.V.E H L 6.4X7X9XwX6XQ.] Z J N eXeXeXeXeXeXeXeXeXeXeXeXeXeXeXeX",
"eXeXeXo.,.O.X.{ g m G &.=.U G 3 |.2X2X2XQ.L._ A ~ ' L.P.] _ G F B m t l.k.i eXeXeXeXeXeXeXeXeXeXeXeX",
"eXeXeXK ;.>.<.>.o.:.%.-.-.U ! p.$X3X8X8X=X4X%X~.K.~.6.` w Y T ` d.c.|.:Xa Y n n W C eXeXeXeXeXeXeXeX",
"eXeXeXC *.1.>.>.>.>.:.-.%.L * s Y.=X1X8X*XQ.,X8X&X$XF.b.c.S.A.A.S.D.oXOXl.s eXb D eXeXeXeXeXeXeXeXeX",
"eXeXeXeXS w.q.:.%.%.%.%.I g . + q s.T.$X3X8X8X3X1XOXG.$XoXG.D.D.S.S.x.y.y.eXn m eXeXeXeXeXeXeXeXeXeX",
"eXeXeXeXeX! 0.w.@.| L L B e i + > < u f z.=X,X1X3X<X<X-X-XG.D.A.S.S.N.eXeXZ ! Q 2.+.M eXeXeXeXeXeXeX",
"eXeXeXeXeXeXk ! X.[ K Z z p.#Xs.7 2 X % < u 5.Y.|.-X-X-X$XD.D.D.S.S.N.T } -.4.4.,.1.C eXeXeXeXeXeXeX",
"eXeXeXeXeXeXeXeXh l l l & v.>X>X X/ , O O X 5 q s d.l.c.b.c.c.x.u.y.r -.<.;.| Z c c = eXeXeXeXeXeXeX",
"eXeXeXeXeXeXeXeXeXeXeXeXeXt.#X;X>XE.K.y 3 5 , 0 > > > 9 n.i 6 6 o . { <.<.&.&.*.Z ! V W ! n R eXeXeX",
"eXeXeXeXeXeXeXeXeXeXeXeXeXeXY.#X>X{.#XXXd.z.d q + + . 9 F.8       @ %.;.=.&.&.&.&.-...&... .Z eXeXeX",
"eXeXeXeXeXeXeXeXeXeXeXeXeXeXp Y.#XY.XX[.j.@X>X@XE.v.t.j.[.p o o 8 ; %.&.&.&.&.&.&.%... .I H z eXeXeX",
"eXeXeXeXeXeXeXeXeXeXeXeXeXeXB.a.M.{.Y.M.v.#X>X>X>X#X+X.X[.C.m.h.g.a L *.%. .} P P P O.O.L c eXeXeXeX",
"eXeXeXeXeXeXeXeXeXeXeXeXeXz.:XXXa.i.a.a.m.XX+X+XXX.X[.[.C.m.n.h.g.r.x [ #.#.#.#.,.3.w.3.Z & eXeXeXeX",
"eXeXeXeXeXeXeXeXeXeXeXeXeXeXp.}.C.t.eXe.a.h.m.C.C.C.m.n.h.f.f.f.r.eXeXj N ! [ $.3.$.X.C & eXeXeXeXeX",
"eXeXeXeXeXeXeXeXeXeXeXeXeXeXV : eXeXeXeXeXeXi p r.t.r.e.h.m.m.h.eXeXeXeXeX= g z l z = eXeXeXeXeXeXeX",
"eXeXeXeXeXeXeXeXeXeXeXeXeXeXQ eXeXeXeXeXeXeXeXeXeXeXeXeXB.@X[.j.eXeXeXeXeXeXeXeXeXeXeXeXeXeXeXeXeXeX",
"eXeXeXeXeXeXeXeXeXeXeXeXeXeXeXeXeXeXeXeXeXeXeXeXeXeXeXeXeXs e ; eXeXeXeXeXeXeXeXeXeXeXeXeXeXeXeXeXeX",
"eXeXeXeXeXeXeXeXeXeXeXeXeXeXeXeXeXeXeXeXeXeXeXeXeXeXeXeXeXeXm Z eXeXeXeXeXeXeXeXeXeXeXeXeXeXeXeXeXeX",
"eXeXeXeXeXeXeXeXeXeXeXeXeXeXeXeXeXeXeXeXeXeXeXeXeXeXeXeXeXeXeXM eXeXeXeXeXeXeXeXeXeXeXeXeXeXeXeXeXeX",
"eXeXeXeXeXeXeXeXeXeXeXeXeXeXeXeXeXeXeXeXeXeXeXeXeXeXeXeXeXeXeXeXeXeXeXeXeXeXeXeXeXeXeXeXeXeXeXeXeXeX"
};
