/* XPM */
static char *xnq1f_46t19[] = {
/* columns rows colors chars-per-pixel */
"50 50 186 2 ",
"   c #356D34",
".  c #386E35",
"X  c #2E7A33",
"o  c #2E7632",
"O  c #377636",
"+  c #4C7D2E",
"@  c #4F6539",
"#  c #4A753F",
"$  c #585B40",
"%  c #586242",
"&  c #5C7642",
"*  c #637C4B",
"=  c #2A8333",
"-  c #2C8D36",
";  c #348536",
":  c #328B36",
">  c #388B35",
",  c #348D39",
"<  c #3A8D3A",
"1  c #2C9237",
"2  c #2D9538",
"3  c #329137",
"4  c #3C9235",
"5  c #329239",
"6  c #3B933B",
"7  c #4E812F",
"8  c #50852F",
"9  c #4F8330",
"0  c #428C3B",
"q  c #4F833E",
"w  c #508530",
"e  c #558D33",
"r  c #588F35",
"t  c #51853E",
"y  c #439236",
"u  c #4C9434",
"i  c #4C9936",
"p  c #44933E",
"a  c #459939",
"s  c #4B9A39",
"d  c #49933F",
"f  c #579334",
"g  c #599435",
"h  c #5C9A37",
"j  c #56993C",
"k  c #5E9B38",
"l  c #58933A",
"z  c #619D3B",
"x  c #5DA235",
"c  c #5FA038",
"v  c #5CAA3B",
"b  c #60A437",
"n  c #63A43B",
"m  c #66AB3C",
"M  c #69AD3E",
"N  c #67B03B",
"B  c #6AB33D",
"V  c #6DBA3E",
"C  c #4B8443",
"Z  c #4E8F40",
"A  c #538846",
"S  c #4D9542",
"D  c #4B9A43",
"F  c #549443",
"G  c #5A9444",
"H  c #549E43",
"J  c #5A9C44",
"K  c #5A9848",
"L  c #608E40",
"P  c #6D874C",
"I  c #71884E",
"U  c #649444",
"Y  c #6A9646",
"T  c #669942",
"R  c #6A9E45",
"E  c #6D944B",
"W  c #659E4B",
"Q  c #6E9B4A",
"!  c #739C4C",
"~  c #71914E",
"^  c #708F50",
"/  c #7D8B56",
"(  c #7F8C5B",
")  c #679550",
"_  c #6E9356",
"`  c #739950",
"'  c #79955B",
"]  c #7E9E53",
"[  c #52A046",
"{  c #5FA444",
"}  c #5CA449",
"|  c #65A243",
" . c #6CA445",
".. c #67A946",
"X. c #6DAB44",
"o. c #64A44C",
"O. c #6DA54A",
"+. c #6DAA4C",
"@. c #65A94D",
"#. c #70AD46",
"$. c #73A44E",
"%. c #78A24F",
"&. c #73AC4A",
"*. c #79AF4E",
"=. c #6DB442",
"-. c #71B446",
";. c #75B24A",
":. c #79B54D",
">. c #7BBB4E",
",. c #74BB46",
"<. c #6DA850",
"1. c #78A050",
"2. c #73AC51",
"3. c #7BAC54",
"4. c #77A552",
"5. c #6FB052",
"6. c #7CB352",
"7. c #7EBA51",
"8. c #77B054",
"9. c #7EC04F",
"0. c #7FC150",
"q. c #838D5D",
"w. c #87875D",
"e. c #809856",
"r. c #8A965D",
"t. c #85995A",
"y. c #80A354",
"u. c #81B556",
"i. c #82BA55",
"p. c #83B459",
"a. c #8BB75F",
"s. c #86BC5A",
"d. c #89BD5C",
"f. c #8D8E61",
"g. c #949165",
"h. c #929D62",
"j. c #969569",
"k. c #9E9B6B",
"l. c #A19C6E",
"z. c #A29F71",
"x. c #87A163",
"c. c #95AE67",
"v. c #9DA36A",
"b. c #90BC61",
"n. c #9CB469",
"m. c #94B066",
"M. c #A1A26D",
"N. c #A6A172",
"B. c #ACA675",
"V. c #A6AB73",
"C. c #AEAB75",
"Z. c #AFAC7A",
"A. c #B4AD7A",
"S. c #AFBB74",
"D. c #B5B27B",
"F. c #BBB47D",
"G. c #B4BC78",
"H. c #BBBC7C",
"J. c #B1B576",
"K. c #80C351",
"L. c #87C158",
"P. c #8DC45D",
"I. c #8EC85E",
"U. c #90C75F",
"Y. c #90C85F",
"T. c #92C960",
"R. c #94C163",
"E. c #AFC177",
"W. c #BBC27C",
"Q. c #C0C47E",
"!. c #BEB680",
"~. c #BFB881",
"^. c #C1B781",
"/. c #C2BA82",
"(. c #C8BE85",
"). c #C5C182",
"_. c #CAC386",
"`. c #CEC389",
"'. c #CECD8A",
"]. c #D2C68B",
"[. c #D4CA8C",
"{. c #D9CC8F",
"}. c #DCCE91",
"|. c #DED192",
" X c #E2D494",
".X c None",
/* pixels */
".X.X.X.X.X.X.X.X.X.X.X.X.X.X.X.X.X.X.X.X.X.X.X.X.X.X.X.X.X.X.X.X.Xp..X.X.X.X.X.X.X.X.X.X.X.X.X.X.X.X",
".X.X.X.X.X.X.X.X.X.X.X.X.X.X.X.X.X.X.X.X.X.X.X.X.X.X.X.X.X.X.X.X6.:.s.3..X.X.X.X.X.X.X.X.X.X.X.X.X.X",
".X.X.X.X.X.X.X.X.X.X.X.X.X.X.X.X.X.X.X.X.X.X.X.X.X.X.X.X.X.X.Xs. .h &.T.P.3..X.X.X.X.X.X.X.X.X.X.X.X",
".X.X.X.X.X.X.X.X.X.X.X.X.X.X.X.X.X.X.X.X.X.X.X.X.X.X.X.X.X.XP.s.l y , G i.T.d..X.X.X.X.X.X.X.X.X.X.X",
".X.X.X.X.X.X.X.X.X.X.X.X.X.X.X.X.X.X.X.X.X.X.X.X.X.X4.4.4.P.P.F - 2 2 1 > J 3.*.6..X.X.X.X.X.X.X.X.X",
".X.X.X.X.X.X.X.X.X.X.X.X.X.X.X.X.X.X.X.X.X.X.X.X.XE ~ f.I 1.Z - 2 2 2 2 2 : g n p.3..X.X.X.X.X.X.X.X",
".X.X.X.X.X.X.X.X.X.X.X.X.X.X.X.X.X.Xs.s.6..X.X.X.X/ /. X`.f.. - 2 2 2 2 2 > n *.6.;..X.X.X.X.X.X.X.X",
".X.X.X.X.X.X.X.X.X.X.X.X.X.X.X.X.Xp.&.n s.P.E % k.{. X}. X XF.* X 1 2 1 6 2.p.:.:.;..X.X.X.X.X.X.X.X",
".X.X.X.X.X.X.X.X.X.X.X.X.X.X.X.Xp.s.c u q P @ g. X X}.!.].}.|.}.l.# = d i.i.>.&.&.&..X.X.X.X.X.X.X.X",
".X.X.X.X.X.X.X.X.X.X.X.X.X.X.Xs.T.o.;   * c.s._ q.`. XA.j.l.~. X X`.q.~ :.i.;.T R Y .X.X.X.X.X.X.X.X",
".X.X.X.X.X.X.X.X.X.X.X.X.X$ E P.o.X   ^ R.I.2.Z = C V.}.{./.Z.|. X X XZ.Y :.R T R Q .X.X.X.X.X.X.X.X",
".X.X.X.X.X.X.X.X.X.X.X.Xl.`.k.& O C 3.T.7.F , 1 2 1 ; ' `. X{.|. X{.B.F.! :. .R &.i.d.u..X.X.X.X.X.X",
".X.X.X.X.X.X.X.X.X.Xw.~. X X'.m.u.:.X.T , 1 2 2 2 2 2 1 A D.|.|.{.l.Z.(.E &.;.O. .G s.T.d..X.X.X.X.X",
".X.X.X.X.X.X.X.X.Xg.}. X|.D.p.L.u.b x 4 2 2 2 2 2 2 2 2 2 K G.|.F.(. X^.R >. .>.H - < W s.P.u..X.X.X",
".X.X.X.X.X.X.X.X` r./.[.E.a.=.,.:.X...< 1 2 2 2 2 2 2 2 [ s.6.Q. X X XD.R  .:.| 5 2 2 - 0 z X.s.! .X",
".X.X.X.X.X.Xp.T.P.U ^ b.6.6...B =.7.I.6.D 2 2 2 2 2 5 @.d.7.7.S. X X Xl.L #.[ 1 2 2 2 2 > b  .6.*..X",
".X.X.X.Xp.P.P.<.G i.P.X.b i s V n m ;.I.s.D 5 3 3 6 5.s.i.>.&.S. X X Xh.4.^ X 1 1 2 2 1 F *.3.>.;..X",
".X.Xd.p.6.6.S - s ,.6.n z < s B m n k =.s.P.J i x :.s.>.#.#.;.J. X X Xh.G.{.k.& = 1 5 } d.:.>.#.&..X",
"6.P.i.n b y 1 2 s V =.:.P.O.n B n z h g M u.#.b X.6.>.O.#.>.:.H. X X/.j.~.{. X`.( O <.i.6.>.R  ..X.X",
"M 0.&.m j - 2 2 y B m X.7.U.-.V B n h g h M -.3.6.:.X.:.&.:.*.(. X~.N.V.N.D. X X XF./ $.>. .T R .X.X",
"N V -.i.s.H 5 2 6 B m n n ;.-.V V V m f f M V #.:.:.0.&.#.>.! (.v.P ~. X[.~.|. X X[.A.! ;.R T &..X.X",
"m B n -.L.P.@.5 s M n n z h M V B m B N h k B ;.7.0.&.X.>.#.] e., - C V.|. X X XA.k.A.! ;.O.#.&..X.X",
"n B M z m i.P.5.j V B n h g h M V m f h N b n >.0.:.:.>.&.O.< : 2 2 2 , x.{. XF.N.}.F.Y >. .;.&..X.X",
"M M n n h n :.P.O.V V B n g g n B M B g 7 M n #.0.9.:.:.| 5 2 2 2 2 2 6 5.n.[.`. X XC.#.#.#.:..X.X.X",
"B B m k h g z -.X.V V B V m g h B X.X.V x + m X.0.>.:.J , 2 2 2 2 1 D 7.i.6.Q. X X Xk.z  .7.3..X.X.X",
"=.V V N k f h B B =.V n g n B h m -.9.-.V b 7 X.0.>.6.J 1 2 2 2 2 [ s.i.7.6.W. X X Xr.R | W s.6.u..X",
"=.V V V V z r n B ;.;.=.N e e N n X.K.>.#.V m | ;.| i.P.+.5 4 u { s.i.>.X.&.~. X X}.e.J 5 ; h n s.$.",
".X=.B k k B n h M >.>.&.-.V f + M n K.7.&.n B  .k l n >.P.| x m u.7.;. .>.:.~. X X].A 1 2 > n &.6.&.",
".X.X=.V x 9 k m z >.>.B ;.-.V h w  .K.>.X.n n c h h g n ;.&.X.&.>.&.X.:.,.6._. X].' , 1 5 o.u.:.>.&.",
".X.X.X.XB B + h B X.>.M B -.X.V b l K...< v ,.V M h f k M =.6.7.&.;.>.O.>.] [.].f.. - p 3.s.6.;.&.&.",
".X.X.X.X.X=.B 7 g ;.>.X.B m M n V X.T 3 1 v V V V V k f m B &.:.7.>. .>.&.] ~.D.[.D.* Q p.>.;.T  .U ",
".X.X.X.X.X.XB V f  .>.X.B m k n n &.8.p u n V B k k B n h M >.0.:.X.>.&.;.t.N.|. X X|.j. .:.R T R .X",
".X.X.X.X.X.X.XM B X. .n M n n h h #.P. .x m 6.-.N k w n m n >.9.>.>.&.&.n.[.`. X X|.F.A.! ;. .R &..X",
".X.X.X.X.X.X.X.X ..X.XN =.m z h g k X.&.&.3.7.6.&.V m + k m #.K.>.;.-.0 _ `. X|.}.z.B./.Q &.&.#.&..X",
".X.X.X.X.X.X.X.X.X.X.XN V V B k f h N =.:.;.;.P.6.x B B 7 h ;.>.>...< 2 - ) ).|.D.~. XF.Y >. .:.&..X",
".X.X.X.X.X.X.X.X.X.X.X=.V B B V n g n =.;.;.=.,.*.M  .m B e O.K.| 3 2 1 H i.p._.}. X XC. .O.;.&..X.X",
".X.X.X.X.X.X.X.X.X.X.X.X=.V c g N m h m >.>.X.B =.i.P.*.B V #.H 5 1 2 } L.i.>.W. X X Xl.U &.&..X.X.X",
".X.X.X.X.X.X.X.X.X.X.X.X.X.XB m 7 h N n >.>.=.B n M 7.Y.6.| 0 - 5 5 <.L.7.7.*.G. X X Xr.O. ..X.X.X.X",
".X.X.X.X.X.X.X.X.X.X.X.X.X.X.XN B 7 f m X.0.=.N M z n ;.P.6.d u x &.L.>.;.&.*.H. X X}.e..X.X.X.X.X.X",
".X.X.X.X.X.X.X.X.X.X.X.X.X.X.X.X=.V e r ;.>.X.m n n h h -.s.#.b ..6.>.O.O.>.:.H. X X]..X.X.X.X.X.X.X",
".X.X.X.X.X.X.X.X.X.X.X.X.X.X.X.X.X=.B g  .>.=.V m z h g k X.&.:.:.>. .;.;.:.:._. X(..X.X.X.X.X.X.X.X",
".X.X.X.X.X.X.X.X.X.X.X.X.X.X.X.X.X.Xm V O.Y N V V V n e g B =.&.:.;.i.;.#.>.` ]./..X.X.X.X.X.X.X.X.X",
".X.X.X.X.X.X.X.X.X.X.X.X.X.X.X.X.X.X.Xz .X.X=.,.B N V m g n B ;.>.i.&.#.>. .y.A..X.X.X.X.X.X.X.X.X.X",
".X.X.X.X.X.X.X.X.X.X.X.X.X.X.X.X.X.X.X.X.X.X.X=.V b f n N h M >.K.-.;.>.&.;..X.X.X.X.X.X.X.X.X.X.X.X",
".X.X.X.X.X.X.X.X.X.X.X.X.X.X.X.X.X.X.X.X.X.X.X.X.XV m e e N n ;.K.>.>.;.&..X.X.X.X.X.X.X.X.X.X.X.X.X",
".X.X.X.X.X.X.X.X.X.X.X.X.X.X.X.X.X.X.X.X.X.X.X.X.X.Xm B f 8 N X.K.:.:.&..X.X.X.X.X.X.X.X.X.X.X.X.X.X",
".X.X.X.X.X.X.X.X.X.X.X.X.X.X.X.X.X.X.X.X.X.X.X.X.X.X.X=.=.g e -.K.>.#..X.X.X.X.X.X.X.X.X.X.X.X.X.X.X",
".X.X.X.X.X.X.X.X.X.X.X.X.X.X.X.X.X.X.X.X.X.X.X.X.X.X.X.Xm V h  .>..X.X.X.X.X.X.X.X.X.X.X.X.X.X.X.X.X",
".X.X.X.X.X.X.X.X.X.X.X.X.X.X.X.X.X.X.X.X.X.X.X.X.X.X.X.X.Xm =.O..X.X.X.X.X.X.X.X.X.X.X.X.X.X.X.X.X.X",
".X.X.X.X.X.X.X.X.X.X.X.X.X.X.X.X.X.X.X.X.X.X.X.X.X.X.X.X.X.Xz .X.X.X.X.X.X.X.X.X.X.X.X.X.X.X.X.X.X.X"
};
