/* XPM */
static char *m2yip_hqxb1[] = {
/* columns rows colors chars-per-pixel */
"50 50 107 2 ",
"   c #0C0B0A",
".  c #100E0E",
"X  c #11100F",
"o  c #151414",
"O  c #181716",
"+  c #191817",
"@  c #1D1B1B",
"#  c #201F1E",
"$  c #23201F",
"%  c #201F20",
"&  c #252322",
"*  c #292625",
"=  c #2B2826",
"-  c #2D2B2A",
";  c #312E2B",
":  c #35312E",
">  c #353332",
",  c #3A3633",
"<  c #3D3936",
"1  c #3D3A39",
"2  c #423C36",
"3  c #423E3B",
"4  c #493F39",
"5  c #45403E",
"6  c #4B443E",
"7  c #464241",
"8  c #4A4543",
"9  c #4E4845",
"0  c #4D4A49",
"q  c #524A45",
"w  c #584F47",
"e  c #534E4A",
"r  c #584F48",
"t  c #56504D",
"y  c #5B534C",
"u  c #555250",
"i  c #5C5652",
"p  c #5E5855",
"a  c #595758",
"s  c #5D5B5B",
"d  c #61554B",
"f  c #655A4F",
"g  c #635B54",
"h  c #695E56",
"j  c #635D5A",
"k  c #6B6056",
"l  c #66615D",
"z  c #6B625B",
"x  c #72665A",
"c  c #77695B",
"v  c #625F60",
"b  c #666362",
"n  c #6E6761",
"m  c #6E6864",
"M  c #736B64",
"N  c #796D63",
"B  c #756E69",
"V  c #7A7166",
"C  c #77706C",
"Z  c #7B736D",
"A  c #7D7671",
"S  c #7F7874",
"D  c #81756B",
"F  c #85786C",
"G  c #827A73",
"H  c #887E77",
"J  c #857E79",
"K  c #86807C",
"L  c #8C837C",
"P  c #90867C",
"I  c #90887F",
"U  c #8E8681",
"Y  c #8F8985",
"T  c #938B85",
"R  c #968E89",
"E  c #97918C",
"W  c #9B938D",
"Q  c #9C9592",
"!  c #9E9895",
"~  c #A3988D",
"^  c #A09790",
"/  c #A49D96",
"(  c #A89E95",
")  c #A59E9A",
"_  c #A89F99",
"`  c #ADA297",
"'  c #A7A09D",
"]  c #AAA29B",
"[  c #ACA5A1",
"{  c #B3ACA5",
"}  c #B8AEA3",
"|  c #B4AEAA",
" . c #B8B0A6",
".. c #B7B0AD",
"X. c #BAB3AC",
"o. c #BBB5B2",
"O. c #BFB8B5",
"+. c #C2BBB6",
"@. c #C3BDBB",
"#. c #C6C0BD",
"$. c #C8C2BE",
"%. c #C6C0C0",
"&. c #CBC5C4",
"*. c #CEC8C6",
"=. c #CFCBCA",
"-. c #D2CDCC",
";. c None",
/* pixels */
";.;.;.;.;.;.;.;.;.;.;.;.;.;.;.;.;.;.;.;.;.;.;.;.;.;.;.;.;.;.;.;.;.;.;.;.;.;.;.;.;.;.;.;.;.;.;.;.;.;.",
";.;.;.;.;.;.;.;.;.;.;.;.;.;.;.;.;.;.;.;.;.;.;.;.;.e ;.;.;.;.;.;.;.;.;.;.;.;.;.;.;.;.;.;.;.;.;.;.;.;.",
";.;.;.;.;.;.;.;.;.;.;.;.;.;.;.;.;.;.;.;.;.;.;.;.;.y ;.;.;.;.;.;.;.;.;.;.;.;.;.;.;.;.;.;.;.;.;.;.;.;.",
";.;.;.;.;.;.;.;.;.;.;.;.;.;.;.;.;.;.;.;.;.;.;.;.;.t ;.;.;.;.;.;.;.;.;.;.;.;.;.;.;.;.;.;.;.;.;.;.;.;.",
";.;.;.;.;.;.;.;.;.;.;.;.;.;.;.;.;.;.;.;.;.;.;.;.;.0 ;.;.;.;.;.;.;.;.;.;.;.;.;.;.;.;.;.;.;.;.;.;.;.;.",
";.;.;.;.;.;.;.;.;.;.;.;.;.;.;.;.;.;.;.;.;.;.;.;.;.8 ;.;.;.;.;.;.;.;.;.;.;.;.;.;.;.;.;.;.;.;.;.;.;.;.",
";.;.;.;.;.;.;.;.;.;.;.;.;.;.;.;.;.;.;.;.;.;.;.;.;.7 ;.;.;.;.;.;.;.;.;.;.;.;.;.;.;.;.;.;.;.;.;.;.;.;.",
";.;.;.;.;.;.;.;.;.;.;.;.;.;.;.;.;.;.;.;.;.;.;.;.;.3 ;.;.;.;.;.;.;.;.;.;.;.;.;.;.;.;.;.;.;.;.;.;.;.;.",
";.;.;.;.;.;.;.;.;.;.;.;.;.;.;.;.;.;.;.;.;.;.;.;.;.u ;.;.;.;.;.;.;.;.;.;.;.;.;.;.;.;.;.;.;.;.;.;.;.;.",
";.;.;.;.;.;.;.;.= a ;.;.;.;.;.;.;.;.b ;.;.;.;.= 8 M L G ;.;.;.;.;.;.;.v e e B ;.;.;.;.;.;.;.;.;.;.;.",
";.;.;.;.;.;.;.;.;.> s ;.;.;.;.;.;.;.e ;.;.1 : : 8 i B M h D ;.;.;.;.;.0 > j > ;.;.;.;.;.;.;.;.;.;.;.",
";.;.;.;.;.;.;.;.;.;.> a ;.;.;.;.;.;.0 i t e e y M A L P F c M M ;.;.0 ; u > ;.;.;.;.;.;.;.;.;.;.;.;.",
";.;.;.;.;.;.;.;.;.;.;.= 7 ;.;.;.;.0 t g m G I T W ` ` ` ~ P V M m j > 7 3 ;.;.;.;.;.;.;.;.;.;.;.;.;.",
";.;.;.;.;.;.;.;.;.;.;.;.O % ;.G C M n C I ^ ] {  . .} X.{ ( I T S j 7 7 ;.;.;.;.;.;.;.;.;.;.;.;.;.;.",
";.;.;.;.;.;.;.;.;.;.;.;.;.o 1 S C G Z L R ] { X.X.{ ..X.} ] I W B 8 0 e ;.;.;.;.;.;.;.;.;.;.;.;.;.;.",
";.;.;.;.;.;.;.;.;.;.;.;.;.& > j l C G T E / { o.X.X.X... .] G L A q b j 9 ;.;.;.;.;.;.;.;.;.;.;.;.;.",
";.;.;.;.;.;.;.;.;.;.;.;.;.* ; 1 t B J T E ) | o.O.@.%.O.o...Q v C M m z 8 8 ;.;.;.;.;.;.;.;.;.;.;.;.",
";.;.;.;.;.;.;.;.;.;.;.;.- & - 1 t Z L Y E ' | O.%.%.=.=.%.%.o.E j j n B i q ;.;.;.;.;.;.;.;.;.;.;.;.",
";.;.;.;.;.;.;.;.;.;.;.;.& = > 1 j A K L Y ' ..@.%.&.=.=.=.*.%.+./ H J G N d 2 ;.;.;.;.;.;.;.;.;.;.;.",
";.;.;.;.;.;.;.;.;.;.;.% + & - , j B L L Y ' o.@.%.-.-.-.-.-.@.+.| / E P D h 6 ;.;.;.;.;.;.;.;.;.;.;.",
";.;.;.;.;.;.;.;.;.;.;.% + @ = , u n G G U ) ..@.&.-.-.-.-.-.*.+.X._ ^ H F c 6 ; ;.;.;.;.;.;.;.;.;.;.",
";.;.;.;.;.;.;.;.;.;.;.O + @ = 9 i g M M J Q [ O.&.*.-.*.*.*.*.@. .( ^ P F x d 2 ;.;.;.;.;.;.;.;.;.;.",
";.;.;.;.;.;.;.;.;.;.;.o + % - 3 e i g j B T ) o.@.&.*.$.$.@.@.@...[ ~ P F x f 6 ;.;.;.;.;.;.;.;.;.;.",
";.;.;.;.;.;.;.;.;.;.;.o + % ; 3 e e y e m J / | o.+.@.@.+.+.+. .{ _ W F c x d 4 ;.;.;.;.;.;.;.;.;.;.",
";.;.;.;.;.;.;.;.;.;.;.+ @ & > 3 8 q u q a B U [ ..| ......| { [ / E U Z z f 6 2 ;.;.;.;.;.;.;.;.;.;.",
";.;.;.;.;.;.;.;.;.;.;.+ @ % ; 1 8 9 8 q q s S Q [ { { { [ _ [ _ R L L F h w 6 : ;.;.;.;.;.;.;.;.;.;.",
";.;.;.;.;.;.;.;.;.;.;.O @ & ; , 8 e 3 3 7 a m G Y E ) ) / ^ Q T G Z G D h 6 2 ; ;.;.;.;.;.;.;.;.;.;.",
";.;.;.;.;.;.;.;.;.;.;.o @ & ; , 3 3 5 < < r j B C S U R H U H B C M N G f 6 , * ;.;.;.;.;.;.;.;.;.;.",
";.;.;.;.;.;.;.;.;.;.;.o % * - > , 1 1 7 3 5 0 a g j m B C J B x z z N g q 6 2 # ;.;.;.;.;.;.;.;.;.;.",
";.;.;.;.;.;.;.;.;.;.;.o + & = - > > 1 7 7 7 0 t u e r i g h h h x M g r q < * . ;.;.;.;.;.;.;.;.;.;.",
";.;.;.;.;.;.;.;.;.;.;.;.O @ - ; ; > , 1 5 8 0 t e 5 5 9 r g d g h h y q 2 ; @ ;.;.;.;.;.;.;.;.;.;.;.",
";.;.;.;.;.;.;.;.;.;.;.;.o + % & - > > 1 5 8 e e e e j j z g r y d w 6 2 : &   ;.;.;.;.;.;.;.;.;.;.;.",
";.;.;.;.;.;.;.;.;.;.;.;.;.+ + % & - , , > , 7 5 1 5 6 i q q 6 w q 6 5 , - O ;.;.;.;.;.;.;.;.;.;.;.;.",
";.;.;.;.;.;.;.;.;.;.;.;.;.;.o O % & ; , > 1 < 1 1 1 6 i 9 8 6 q d y 2 ; @ ;.;.;.;.;.;.;.;.;.;.;.;.;.",
";.;.;.;.;.;.;.;.;.;.;.;.;.;.o o o % & - > 1 1 7 9 q 9 i q q 5 6 w 6 ; $   ;.;.;.;.;.;.;.;.;.;.;.;.;.",
";.;.;.;.;.;.;.;.;.;.;.;.;.;.;.O % O + % * - 1 , < 5 6 6 y 9 2 1 : : =   ;.;.;.;.;.;.;.;.;.;.;.;.;.;.",
";.;.;.;.;.;.;.;.;.;.;.;.;.;.;.  - > % + @ # = = ; : 6 5 , : - : 2 j - ;.;.;.;.;.;.;.;.;.;.;.;.;.;.;.",
";.;.;.;.;.;.;.;.;.;.;.;.;.;.;.;.& j u % @ O O # $ $ * & $ + @ , u 7 ;.;.;.;.;.;.;.;.;.;.;.;.;.;.;.;.",
";.;.;.;.;.;.;.;.;.;.;.;.;.;.;.*   ;.;.;.O O o o + O # + O X @ * 7 ;.;.;.;.;.;.;.;.;.;.;.;.;.;.;.;.;.",
";.;.;.;.;.;.;.;.;.;.;.;.;.;.0 * ;.;.;.;.;.;.;.o $ X 1 # ;.;.;.;., ;.;.;.;.;.;.;.;.;.;.;.;.;.;.;.;.;.",
";.;.;.;.;.;.;.;.;.;.;.;.;.;.7 ;.;.;.;.;.;.;.;.;.1 7 8 ;.;.;.;.;.;.p ;.;.;.;.;.;.;.;.;.;.;.;.;.;.;.;.",
";.;.;.;.;.;.;.;.;.;.;.;.;.a ;.;.;.;.;.;.;.;.;.;.& 7 j ;.;.;.;.;.;.p ;.;.;.;.;.;.;.;.;.;.;.;.;.;.;.;.",
";.;.;.;.;.;.;.;.;.;.;.;.0 ; ;.;.;.;.;.;.;.;.;.;.o > B ;.;.;.;.;.;.;.l ;.;.;.;.;.;.;.;.;.;.;.;.;.;.;.",
";.;.;.;.;.;.;.;.;.;.;.;.;.;.;.;.;.;.;.;.;.;.;.;.o > v ;.;.;.;.;.;.;.i ;.;.;.;.;.;.;.;.;.;.;.;.;.;.;.",
";.;.;.;.;.;.;.;.;.;.;.;.;.;.;.;.;.;.;.;.;.;.;.;.e : 5 ;.;.;.;.;.;.;.;.8 ;.;.;.;.;.;.;.;.;.;.;.;.;.;.",
";.;.;.;.;.;.;.;.;.;.;.;.;.;.;.;.;.;.;.;.;.;.;.;.e O > ;.;.;.;.;.;.;.;.;.;.;.;.;.;.;.;.;.;.;.;.;.;.;.",
";.;.;.;.;.;.;.;.;.;.;.;.;.;.;.;.;.;.;.;.;.;.;.;.5 ;.$ ;.;.;.;.;.;.;.;.;.;.;.;.;.;.;.;.;.;.;.;.;.;.;.",
";.;.;.;.;.;.;.;.;.;.;.;.;.;.;.;.;.;.;.;.;.;.;.;.& ;.;.;.;.;.;.;.;.;.;.;.;.;.;.;.;.;.;.;.;.;.;.;.;.;.",
";.;.;.;.;.;.;.;.;.;.;.;.;.;.;.;.;.;.;.;.;.;.;.;.;.;.;.;.;.;.;.;.;.;.;.;.;.;.;.;.;.;.;.;.;.;.;.;.;.;.",
";.;.;.;.;.;.;.;.;.;.;.;.;.;.;.;.;.;.;.;.;.;.;.;.;.;.;.;.;.;.;.;.;.;.;.;.;.;.;.;.;.;.;.;.;.;.;.;.;.;."
};
